<?xml version="1.0" encoding="UTF-8" standalone="no"?>
<svg
    xmlns:dc="http://purl.org/dc/elements/1.1/"
    xmlns:cc="http://creativecommons.org/ns#"
    xmlns:rdf="http://www.w3.org/1999/02/22-rdf-syntax-ns#"
    xmlns:svg="http://www.w3.org/2000/svg"
    xmlns="http://www.w3.org/2000/svg"
    xml:space="preserve"
    x="0px"
    y="0px"
    width="133.986px"
    height="133.986px"
    viewBox="0 0 133.986 133.986"
    style="enable-background:new 0 0 133.986 133.986;"
    version="1.1">
    <path fill="white" d="M 77.158,14.617 C 83.094609,14.926465 86.811284,7.0442249 82.798416,2.6596516 79.718619,-1.1585367 74.542253,0.2838665 70.301043,0 66.555439,0.25082071 62.5827,-0.67262793 59.057941,0.88208618 55.227335,2.723816 55.033639,7.1906681 55.233,10.874618 c 0.02514,38.850425 -0.05029,77.703388 0.03772,116.552222 0.314217,4.53749 4.991041,7.1858 9.191227,6.56016 4.720732,-0.0853 9.463725,0.17911 14.169171,-0.14843 5.83942,-0.89336 7.920823,-9.27947 3.176645,-12.79926 -3.424986,-2.6641 -7.956539,-1.35307 -11.957764,-1.66931 0,-34.917667 0,-69.835333 0,-104.753 2.436,0 4.872,0 7.308,0 z" stroke="#666666" stroke-width="2" />
</svg>
