<?xml version="1.0" encoding="UTF-8" standalone="no"?>
<svg
    xmlns:dc="http://purl.org/dc/elements/1.1/"
    xmlns:cc="http://creativecommons.org/ns#"
    xmlns:rdf="http://www.w3.org/1999/02/22-rdf-syntax-ns#"
    xmlns:svg="http://www.w3.org/2000/svg"
    xmlns="http://www.w3.org/2000/svg"
    xml:space="preserve"
    x="0px"
    y="0px"
    width="512px"
    height="512px"
    viewBox="0 0 512 512"
    style="enable-background:new 0 0 512 512;"
    version="1.1">
    <path
        fill="#97a8cc"
        d="m 269.0146,386.595 c 0,0 -4.3336,125.76226 -13.0146,125.405 -8.54572,0.10464 -13.0145,-125.405 -13.0145,-125.405 -0.4847,-4.67 -0.7275,-9.361 -0.7275,-14.054 l 0,-116.541 27.483,0 0,116.542 c 0,4.693 -0.2428,9.384 -0.7264,14.053 z" />
    <path
        fill="#d2555a"
        d="m 326.621,26.501182 0,-17.673182 -141.242,0 0,17.673182 7.977,0 c 5.041,0 9.057,4.217338 8.818,9.257524 l -7.967,167.476294 123.586,0 -7.967,-167.476294 c -0.239,-5.040186 3.777,-9.257524 8.818,-9.257524 0,0 7.977,0 7.977,0 z" />
    <g>
        <path
            fill="#FF6464"
            d="M335.448,26.483H176.552c-4.875,0-8.828-3.953-8.828-8.828V8.828c0-4.875,3.953-8.828,8.828-8.828   h158.897c4.875,0,8.828,3.953,8.828,8.828v8.828C344.276,22.53,340.323,26.483,335.448,26.483z" />
        <path
            fill="#FF6464"
            d="M194.207,203.034l-46.613,38.844c-4.025,3.354-6.353,8.323-6.353,13.564v9.386h229.517v-9.386   c0-5.239-2.327-10.209-6.353-13.564l-46.613-38.844H194.207z" />
    </g>
    <path
        fill="#D2555A"
        d="M361.931,273.655H150.069c-4.875,0-8.828-3.953-8.828-8.828V256c0-4.875,3.953-8.828,8.828-8.828  h211.862c4.875,0,8.828,3.953,8.828,8.828v8.828C370.759,269.703,366.806,273.655,361.931,273.655z" />
    <path
        fill="#BE4B50"
        d="M238.293,203.034l1.32-167.305c0-9.87-5.707-10.494-5.707-18.074V8.828h-48.526v17.655h7.977  c5.041,0,9.057,4.213,8.818,9.247l-7.967,167.305H238.293z" />
    <g>
        <path
            fill="#D2555A"
            d="M233.906,17.655V8.828c0-4.875,4.256-8.828,9.506-8.828h-66.86c-4.875,0-8.828,3.953-8.828,8.828   v8.828c0,4.875,3.953,8.828,8.828,8.828h60.577C235.587,23.868,233.906,21.78,233.906,17.655z" />
        <path
            fill="#D2555A"
            d="M230.57,241.878l7.723-38.844h-44.086l-46.613,38.844c-4.024,3.354-6.353,8.323-6.353,13.564v9.386   h88.276c0,0,0-6.621,0-8.828C229.517,249.56,229.903,245.233,230.57,241.878z" />
    </g>
    <path
        fill="#BE4B50"
        d="M229.517,264.828c0,0,0-6.621,0-8.828c0-3.528,0.125-6.38,0.34-8.828h-79.788  c-4.875,0-8.828,3.953-8.828,8.828v8.828c0,4.875,3.953,8.828,8.828,8.828h88.954C233.773,273.655,229.517,269.703,229.517,264.828z" />
    <rect
        x="242.759"
        y="273.655"
        fill="#5d6d93"
        width="26.483"
        height="17.655" />
</svg>
