<?xml version="1.0" encoding="UTF-8" standalone="no"?>
<svg
    xmlns:dc="http://purl.org/dc/elements/1.1/"
    xmlns:cc="http://creativecommons.org/ns#"
    xmlns:rdf="http://www.w3.org/1999/02/22-rdf-syntax-ns#"
    xmlns:svg="http://www.w3.org/2000/svg"
    xmlns="http://www.w3.org/2000/svg"
    xml:space="preserve"
    y="0px"
    x="0px"
    width="430.114px"
    height="430.114px"
    viewBox="0 0 430.114 430.114"
    style="enable-background:new 0 0 430.114 430.114;"
    version="1.1">
    <path fill="red" d="M 356.208,107.051 C 339.45604,48.804622 284.95346,2.3689 223.59818,0.13994103 160.31255,-4.3668996 94.359277,34.831205 74.817854,96.501454 58.989537,140.76547 67.440302,191.44491 93.538434,230.07305 c 32.450956,55.85099 67.000646,110.45261 100.369506,165.75387 7.51463,9.21795 15.19122,30.44164 22.60355,31.93822 33.22107,-58.08698 67.27879,-115.6976 103.63449,-171.88149 23.34945,-35.55431 47.14539,-75.36564 43.14496,-119.66363 -0.8407,-10.0106 -3.25387,-19.88323 -7.08294,-29.16902 z m -141.963,92.142 c -30.94583,1.61923 -56.97774,-29.54417 -52.21937,-59.66615 -1.40326,-32.45522 33.60583,-57.639043 64.29031,-49.573733 31.24542,5.871395 53.36342,41.756543 40.76178,71.879543 -7.79191,21.54413 -29.36109,38.58865 -52.83272,37.36034 z" />
</svg>
